<?xml version="1.0" encoding="UTF-8" standalone="no"?>
<svg
   xmlns:dc="http://purl.org/dc/elements/1.1/"
   xmlns:cc="http://creativecommons.org/ns#"
   xmlns:rdf="http://www.w3.org/1999/02/22-rdf-syntax-ns#"
   xmlns:svg="http://www.w3.org/2000/svg"
   xmlns="http://www.w3.org/2000/svg"
   xmlns:sodipodi="http://sodipodi.sourceforge.net/DTD/sodipodi-0.dtd"
   xmlns:inkscape="http://www.inkscape.org/namespaces/inkscape"
   version="1.1"
   id="svg10"
   xml:space="preserve"
   width="420"
   height="200"
   viewBox="0 0 419.99999 200"
   sodipodi:docname="logo.svg"
   inkscape:version="1.0 (4035a4fb49, 2020-05-01)"><metadata
     id="metadata16"><rdf:RDF><cc:Work
         rdf:about=""><dc:format>image/svg+xml</dc:format><dc:type
           rdf:resource="http://purl.org/dc/dcmitype/StillImage" /><dc:title /></cc:Work></rdf:RDF></metadata><defs
     id="defs14"><clipPath
       clipPathUnits="userSpaceOnUse"
       id="clipPath28"><path
         d="M 0,960 H 1280 V 0 H 0 Z"
         id="path26" /></clipPath></defs><sodipodi:namedview
     inkscape:pagecheckerboard="true"
     inkscape:document-rotation="0"
     pagecolor="#ffffff"
     bordercolor="#666666"
     borderopacity="1"
     objecttolerance="10"
     gridtolerance="10"
     guidetolerance="10"
     inkscape:pageopacity="0"
     inkscape:pageshadow="2"
     inkscape:window-width="1920"
     inkscape:window-height="1001"
     id="namedview12"
     showgrid="false"
     inkscape:zoom="0.51738279"
     inkscape:cx="525.88366"
     inkscape:cy="640"
     inkscape:window-x="-9"
     inkscape:window-y="-9"
     inkscape:window-maximized="1"
     inkscape:current-layer="g18" /><g
     id="g18"
     inkscape:groupmode="layer"
     inkscape:label="AKmira2c(1)"
     transform="matrix(1.3333333,0,0,-1.3333333,0,1280)"><g
       transform="translate(-5.5088589,-2.3694757)"
       id="g1060"><g
         transform="translate(56.79656,835.43784)"
         id="g30"><path
           id="path32"
           style="fill:#282561;fill-opacity:1;fill-rule:nonzero;stroke:none"
           d="m 0,0 c -1.999,0 -3.506,1.869 -3.506,4.348 0,1.631 0.753,4.394 3.577,4.394 2.59,0 3.531,-2.585 3.531,-4.322 C 3.602,1.9 2.054,0 0,0 m 0.096,11.104 c -3.059,0 -6.156,-2.345 -6.156,-6.829 0,-3.845 2.519,-6.636 5.988,-6.636 2.999,0 6.227,2.144 6.227,6.852 0,3.894 -2.492,6.613 -6.059,6.613" /></g><g
         transform="translate(85.08466,837.83824)"
         id="g34"><path
           id="path36"
           style="fill:#282561;fill-opacity:1;fill-rule:nonzero;stroke:none"
           d="m 0,0 c -0.051,0.205 -0.075,0.448 -0.075,0.745 v 2.259 c 0,0.195 0.065,0.471 0.124,0.714 L 0.07,3.811 c 0.396,1.49 1.689,2.531 3.145,2.531 2.309,0 3.361,-2.191 3.361,-4.227 C 6.576,-0.067 5.668,-2.4 3.118,-2.4 1.642,-2.4 0.387,-1.43 0,0 M 3.455,8.704 C 1.998,8.704 0.758,8.262 -0.208,7.41 l -0.033,1.029 h -2.531 l 0.048,-0.746 c 0.067,-1.02 0.095,-2.106 0.095,-3.631 V -9.256 h 2.554 v 5.538 c 0.884,-0.676 2.009,-1.044 3.265,-1.044 2.862,0 5.941,2.167 5.941,6.925 0,3.852 -2.334,6.541 -5.676,6.541" /></g><g
         transform="translate(116.72916,849.13514)"
         id="g38"><path
           id="path40"
           style="fill:#282561;fill-opacity:1;fill-rule:nonzero;stroke:none"
           d="m 0,0 -2.554,-0.957 v -1.9 h -1.947 v -2.338 h 1.947 v -6.582 c 0,-1.488 0.293,-2.543 0.87,-3.196 0.556,-0.71 1.428,-1.086 2.522,-1.086 0.727,0 1.363,0.118 1.891,0.347 l 0.5,0.219 -0.37,2.21 -0.776,-0.258 c -0.148,-0.049 -0.489,-0.132 -1.101,-0.132 -0.367,0 -0.982,0 -0.982,1.68 v 6.798 h 3.292 v 2.338 H 0 Z" /></g><g
         transform="translate(144.19206,846.54234)"
         id="g42"><path
           id="path44"
           style="fill:#282561;fill-opacity:1;fill-rule:nonzero;stroke:none"
           d="m 0,0 c -1.006,0 -1.945,-0.403 -2.686,-1.104 l -0.017,0.839 h -2.488 l 0.046,-0.744 c 0.064,-1.016 0.095,-2.134 0.095,-3.417 v -8.775 h 2.554 v 7.068 c 0,0.395 0.026,0.708 0.086,0.99 0.27,1.602 1.188,2.637 2.338,2.637 0.165,0 0.285,0 0.357,-0.02 l 0.896,-0.261 v 2.629 L 0.598,-0.059 C 0.419,-0.028 0.209,0 0,0" /></g><g
         transform="translate(172.68816,839.85774)"
         id="g46"><path
           id="path48"
           style="fill:#282561;fill-opacity:1;fill-rule:nonzero;stroke:none"
           d="m 0,0 c 0,-2.52 -1.548,-4.42 -3.602,-4.42 -1.999,0 -3.505,1.869 -3.505,4.348 0,1.632 0.753,4.394 3.578,4.394 C -0.939,4.322 0,1.737 0,0 m -3.506,6.685 c -3.058,0 -6.155,-2.346 -6.155,-6.83 0,-3.845 2.518,-6.636 5.987,-6.636 2.999,0 6.228,2.144 6.228,6.852 0,3.894 -2.492,6.614 -6.06,6.614" /></g><g
         transform="translate(200.54166,846.54234)"
         id="g50"><path
           id="path52"
           style="fill:#282561;fill-opacity:1;fill-rule:nonzero;stroke:none"
           d="m 0,0 c -1.272,0 -2.47,-0.443 -3.377,-1.2 l -0.033,0.935 h -2.515 l 0.06,-0.756 c 0.067,-0.849 0.094,-1.609 0.094,-2.708 v -9.472 h 2.553 v 7.838 c 0,0.239 0.044,0.546 0.114,0.828 0.381,1.245 1.555,2.148 2.792,2.148 2.063,0 2.496,-1.788 2.496,-3.289 v -7.525 h 2.553 v 7.622 C 4.737,-1.461 2.186,0 0,0" /></g><path
         id="path54"
         style="fill:#282561;fill-opacity:1;fill-rule:nonzero;stroke:none"
         d="m 225.64916,833.34104 h 2.554 v 12.937 h -2.554 z" /><g
         transform="translate(226.92646,850.57944)"
         id="g56"><path
           id="path58"
           style="fill:#282561;fill-opacity:1;fill-rule:nonzero;stroke:none"
           d="m 0,0 c -0.903,0 -1.638,-0.768 -1.638,-1.71 0,-0.944 0.699,-1.685 1.589,-1.685 0.947,0 1.661,0.725 1.661,1.685 C 1.612,-0.751 0.904,0 0,0" /></g><g
         transform="translate(254.24776,844.15564)"
         id="g60"><path
           id="path62"
           style="fill:#282561;fill-opacity:1;fill-rule:nonzero;stroke:none"
           d="M 0,0 C 0.893,0 1.689,-0.195 2.37,-0.582 L 3.047,-0.965 3.992,1.202 3.534,1.533 c -0.57,0.411 -1.889,0.854 -3.438,0.854 -3.845,0 -6.636,-2.883 -6.636,-6.854 0,-3.879 2.561,-6.588 6.228,-6.588 1.299,0 2.575,0.282 3.689,0.813 L 3.94,-9.974 3.175,-7.735 2.47,-8.061 c -0.665,-0.308 -1.413,-0.608 -2.59,-0.608 -2.313,0 -3.866,1.728 -3.866,4.299 C -3.986,-2.354 -2.942,0 0,0" /></g><g
         transform="translate(281.30926,841.15274)"
         id="g64"><path
           id="path66"
           style="fill:#282561;fill-opacity:1;fill-rule:nonzero;stroke:none"
           d="m 0,0 c -1.677,0.697 -1.947,1.082 -1.947,1.733 0,0.626 0.403,1.294 1.534,1.294 0.73,0 1.37,-0.191 1.903,-0.568 L 2.178,1.973 3.206,4.202 2.732,4.539 C 1.97,5.079 0.894,5.39 -0.221,5.39 c -2.795,0 -4.257,-1.925 -4.257,-3.826 0,-1.669 1.139,-2.949 3.37,-3.796 1.682,-0.684 1.99,-1.2 1.99,-1.971 0,-0.945 -0.726,-1.487 -1.991,-1.487 -0.965,0 -1.811,0.431 -2.229,0.688 l -0.693,0.427 -0.96,-2.26 0.506,-0.316 c 0.913,-0.573 2.117,-0.901 3.303,-0.901 2.747,0 4.594,1.605 4.594,3.992 C 3.412,-1.624 1.579,-0.606 0,0" /></g><g
         transform="translate(209.11396,919.65754)"
         id="g68"><path
           id="path70"
           style="fill:#bf1e2d;fill-opacity:1;fill-rule:nonzero;stroke:none"
           d="m 0,0 c -3.704,0 -6.233,-2.62 -6.233,-6.052 0,-3.343 2.439,-5.962 6.143,-5.962 3.884,0 6.323,2.619 6.323,5.962 C 6.143,-2.62 3.794,0 0,0" /></g><g
         transform="translate(82.43786,882.98224)"
         id="g72"><path
           id="path74"
           style="fill:#262261;fill-opacity:1;fill-rule:nonzero;stroke:none"
           d="m 0,0 h -13.411 c 0,0 6.684,22.854 7.588,26.377 H 0.009 Z M 44.447,35.23 H 30.716 c 0,0 -17.651,-23.011 -19.839,-26.098 L 10.632,35.23 h -23.05 l -19.511,-60.884 h 11.472 l 5.239,17.253 15.227,10e-4 0.009,-17.254 h 11.185 l -0.218,23.281 4.556,4.632 17.253,-27.913 H 45.802 L 23.49,9.304 Z" /></g><g
         transform="translate(181.38436,902.31374)"
         id="g76"><path
           id="path78"
           style="fill:#262261;fill-opacity:1;fill-rule:nonzero;stroke:none"
           d="m 0,0 c -3.614,0 -6.414,-0.903 -8.853,-2.62 -2.077,-1.264 -3.884,-3.071 -5.42,-5.51 h -0.18 C -16.35,-3.252 -20.867,0 -26.649,0 -34.056,0 -38.03,-4.065 -40.198,-7.498 h -0.271 l -0.452,6.504 h -9.575 c 0.271,-3.794 0.361,-8.039 0.361,-13.098 v -30.894 h 10.84 v 26.016 c 0,1.265 0.181,2.529 0.632,3.614 0.994,3.071 3.794,6.323 7.95,6.323 5.149,0 7.588,-4.336 7.588,-10.479 v -25.474 h 10.839 v 26.378 c 0,1.264 0.272,2.619 0.542,3.703 1.175,3.162 3.976,5.872 7.769,5.872 5.33,0 7.859,-4.336 7.859,-11.654 v -24.299 h 10.84 V -19.06 C 14.724,-4.968 7.317,0 0,0" /></g><path
         id="path80"
         style="fill:#bf1e2d;fill-opacity:1;fill-rule:nonzero;stroke:none"
         d="m 203.51316,857.32804 h 11.201 v 43.992 h -11.201 z" /><g
         transform="translate(246.96216,902.04274)"
         id="g82"><path
           id="path84"
           style="fill:#262261;fill-opacity:1;fill-rule:nonzero;stroke:none"
           d="m 0,0 c -0.903,0.18 -1.536,0.271 -2.619,0.271 -4.698,0 -9.847,-3.162 -12.015,-9.395 h -0.361 l -0.362,8.401 h -9.665 c 0.271,-3.975 0.361,-8.22 0.361,-14.182 v -29.81 h 11.111 v 22.764 c 0,1.265 0.181,2.439 0.362,3.432 0.993,4.969 4.607,8.402 9.937,8.402 1.354,0 2.348,-0.181 3.251,-0.362 z" /></g><g
         transform="translate(272.43716,872.92584)"
         id="g86"><path
           id="path88"
           style="fill:#262261;fill-opacity:1;fill-rule:nonzero;stroke:none"
           d="m 0,0 c 0,-0.729 -0.092,-1.642 -0.365,-2.463 -1.003,-3.192 -4.287,-6.111 -8.757,-6.111 -3.558,0 -6.385,2.007 -6.385,6.385 0,6.751 7.57,8.483 15.507,8.3 z m 10.945,-4.926 v 16.055 c 0,9.668 -4.104,18.699 -18.334,18.699 -7.024,0 -12.77,-1.915 -16.054,-3.922 l 2.189,-7.298 c 3.01,1.916 7.571,3.284 11.949,3.284 7.845,0 9.031,-4.834 9.031,-7.753 v -0.73 C -16.693,13.5 -26.636,7.845 -26.636,-3.375 c 0,-6.75 5.017,-13.227 13.956,-13.227 5.747,0 10.399,2.463 13.136,5.93 h 0.273 l 0.73,-4.926 h 10.125 c -0.456,2.737 -0.639,6.659 -0.639,10.672" /></g><g
         transform="translate(281.85416,908.67834)"
         id="g90"><path
           id="path92"
           style="fill:#262261;fill-opacity:1;fill-rule:nonzero;stroke:none"
           d="m 0,0 c -49.881,36.49 -99.682,36.421 -149.678,-0.766 10.011,22.643 42.66,37.789 68.319,39.295 C -40.348,40.936 -6.054,16.001 0,0" /></g></g><g
       id="g94"
       transform="translate(-595.48754,833.35104)"><path
         d="m 0,0 c -1.999,0 -3.506,1.869 -3.506,4.348 0,1.631 0.753,4.394 3.577,4.394 2.59,0 3.531,-2.585 3.531,-4.322 C 3.602,1.9 2.054,0 0,0 m 0.096,11.104 c -3.059,0 -6.156,-2.345 -6.156,-6.829 0,-3.845 2.519,-6.636 5.988,-6.636 2.999,0 6.227,2.144 6.227,6.852 0,3.894 -2.492,6.613 -6.059,6.613"
         style="fill:#ffffff;fill-opacity:1;fill-rule:nonzero;stroke:none"
         id="path96" /></g><g
       id="g98"
       transform="translate(-567.19944,835.75144)"><path
         d="m 0,0 c -0.051,0.205 -0.075,0.448 -0.075,0.745 v 2.259 c 0,0.195 0.065,0.471 0.124,0.714 L 0.07,3.811 c 0.396,1.49 1.689,2.531 3.145,2.531 2.309,0 3.361,-2.191 3.361,-4.227 C 6.576,-0.067 5.668,-2.4 3.118,-2.4 1.642,-2.4 0.387,-1.43 0,0 M 3.455,8.704 C 1.998,8.704 0.758,8.262 -0.208,7.41 l -0.033,1.029 h -2.531 l 0.048,-0.746 c 0.067,-1.02 0.095,-2.106 0.095,-3.631 V -9.256 h 2.554 v 5.538 c 0.884,-0.676 2.009,-1.044 3.265,-1.044 2.862,0 5.941,2.167 5.941,6.925 0,3.852 -2.334,6.541 -5.676,6.541"
         style="fill:#ffffff;fill-opacity:1;fill-rule:nonzero;stroke:none"
         id="path100" /></g><g
       id="g102"
       transform="translate(-535.55494,847.04834)"><path
         d="m 0,0 -2.554,-0.957 v -1.9 h -1.947 v -2.338 h 1.947 v -6.582 c 0,-1.488 0.293,-2.543 0.87,-3.196 0.556,-0.71 1.428,-1.086 2.522,-1.086 0.727,0 1.363,0.118 1.891,0.347 l 0.5,0.219 -0.37,2.21 -0.776,-0.258 c -0.148,-0.049 -0.489,-0.132 -1.101,-0.132 -0.367,0 -0.982,0 -0.982,1.68 v 6.798 h 3.292 v 2.338 H 0 Z"
         style="fill:#ffffff;fill-opacity:1;fill-rule:nonzero;stroke:none"
         id="path104" /></g><g
       id="g106"
       transform="translate(-508.09204,844.45554)"><path
         d="m 0,0 c -1.006,0 -1.945,-0.403 -2.686,-1.104 l -0.017,0.839 h -2.488 l 0.046,-0.744 c 0.064,-1.016 0.095,-2.134 0.095,-3.417 v -8.775 h 2.554 v 7.068 c 0,0.395 0.026,0.708 0.086,0.99 0.27,1.602 1.188,2.637 2.338,2.637 0.165,0 0.285,0 0.357,-0.02 l 0.896,-0.261 v 2.629 L 0.598,-0.059 C 0.419,-0.028 0.209,0 0,0"
         style="fill:#ffffff;fill-opacity:1;fill-rule:nonzero;stroke:none"
         id="path108" /></g><g
       id="g110"
       transform="translate(-479.59594,837.77104)"><path
         d="m 0,0 c 0,-2.52 -1.548,-4.42 -3.602,-4.42 -1.999,0 -3.505,1.869 -3.505,4.348 0,1.632 0.753,4.394 3.578,4.394 C -0.939,4.322 0,1.737 0,0 m -3.506,6.685 c -3.058,0 -6.155,-2.346 -6.155,-6.83 0,-3.845 2.518,-6.636 5.987,-6.636 2.999,0 6.228,2.144 6.228,6.852 0,3.894 -2.492,6.614 -6.06,6.614"
         style="fill:#ffffff;fill-opacity:1;fill-rule:nonzero;stroke:none"
         id="path112" /></g><g
       id="g114"
       transform="translate(-451.74244,844.45554)"><path
         d="m 0,0 c -1.272,0 -2.47,-0.443 -3.377,-1.2 l -0.033,0.935 h -2.515 l 0.06,-0.756 c 0.067,-0.849 0.094,-1.609 0.094,-2.708 v -9.472 h 2.553 v 7.838 c 0,0.239 0.044,0.546 0.114,0.828 0.381,1.245 1.555,2.148 2.792,2.148 2.063,0 2.496,-1.788 2.496,-3.289 v -7.525 h 2.553 v 7.622 C 4.737,-1.461 2.186,0 0,0"
         style="fill:#ffffff;fill-opacity:1;fill-rule:nonzero;stroke:none"
         id="path116" /></g><path
       d="m -426.63484,831.25404 h 2.554 v 12.937 h -2.554 z"
       style="fill:#ffffff;fill-opacity:1;fill-rule:nonzero;stroke:none"
       id="path118" /><g
       id="g120"
       transform="translate(-425.35774,848.49264)"><path
         d="m 0,0 c -0.903,0 -1.638,-0.768 -1.638,-1.71 0,-0.944 0.699,-1.685 1.589,-1.685 0.947,0 1.661,0.725 1.661,1.685 C 1.612,-0.751 0.904,0 0,0"
         style="fill:#ffffff;fill-opacity:1;fill-rule:nonzero;stroke:none"
         id="path122" /></g><g
       id="g124"
       transform="translate(-398.03644,842.06884)"><path
         d="M 0,0 C 0.893,0 1.689,-0.195 2.37,-0.582 L 3.047,-0.965 3.992,1.202 3.534,1.533 c -0.57,0.411 -1.889,0.854 -3.438,0.854 -3.845,0 -6.636,-2.883 -6.636,-6.854 0,-3.879 2.561,-6.588 6.228,-6.588 1.299,0 2.575,0.282 3.689,0.813 L 3.94,-9.974 3.175,-7.735 2.47,-8.061 c -0.665,-0.308 -1.413,-0.608 -2.59,-0.608 -2.313,0 -3.866,1.728 -3.866,4.299 C -3.986,-2.354 -2.942,0 0,0"
         style="fill:#ffffff;fill-opacity:1;fill-rule:nonzero;stroke:none"
         id="path126" /></g><g
       id="g128"
       transform="translate(-370.97484,839.06594)"><path
         d="m 0,0 c -1.677,0.697 -1.947,1.082 -1.947,1.733 0,0.626 0.403,1.294 1.534,1.294 0.73,0 1.37,-0.191 1.903,-0.568 L 2.178,1.973 3.206,4.202 2.732,4.539 C 1.97,5.079 0.894,5.39 -0.221,5.39 c -2.795,0 -4.257,-1.925 -4.257,-3.826 0,-1.669 1.139,-2.949 3.37,-3.796 1.682,-0.684 1.99,-1.2 1.99,-1.971 0,-0.945 -0.726,-1.487 -1.991,-1.487 -0.965,0 -1.811,0.431 -2.229,0.688 l -0.693,0.427 -0.96,-2.26 0.506,-0.316 c 0.913,-0.573 2.117,-0.901 3.303,-0.901 2.747,0 4.594,1.605 4.594,3.992 C 3.412,-1.624 1.579,-0.606 0,0"
         style="fill:#ffffff;fill-opacity:1;fill-rule:nonzero;stroke:none"
         id="path130" /></g><g
       id="g132"
       transform="translate(-443.17024,917.57074)"><path
         d="m 0,0 c -3.704,0 -6.233,-2.62 -6.233,-6.052 0,-3.343 2.439,-5.962 6.143,-5.962 3.884,0 6.323,2.619 6.323,5.962 C 6.143,-2.62 3.794,0 0,0"
         style="fill:#ffffff;fill-opacity:1;fill-rule:nonzero;stroke:none"
         id="path134" /></g><g
       id="g136"
       transform="translate(-569.84624,880.89544)"><path
         d="m 0,0 h -13.411 c 0,0 6.684,22.854 7.588,26.377 H 0.009 Z M 44.447,35.23 H 30.716 c 0,0 -17.651,-23.011 -19.839,-26.098 L 10.632,35.23 h -23.05 l -19.511,-60.884 h 11.472 l 5.239,17.253 15.227,10e-4 0.009,-17.254 h 11.185 l -0.218,23.281 4.556,4.632 17.253,-27.913 H 45.802 L 23.49,9.304 Z"
         style="fill:#ffffff;fill-opacity:1;fill-rule:nonzero;stroke:none"
         id="path138" /></g><g
       id="g140"
       transform="translate(-470.89974,900.22694)"><path
         d="m 0,0 c -3.614,0 -6.414,-0.903 -8.853,-2.62 -2.077,-1.264 -3.884,-3.071 -5.42,-5.51 h -0.18 C -16.35,-3.252 -20.867,0 -26.649,0 -34.056,0 -38.03,-4.065 -40.198,-7.498 h -0.271 l -0.452,6.504 h -9.575 c 0.271,-3.794 0.361,-8.039 0.361,-13.098 v -30.894 h 10.84 v 26.016 c 0,1.265 0.181,2.529 0.632,3.614 0.994,3.071 3.794,6.323 7.95,6.323 5.149,0 7.588,-4.336 7.588,-10.479 v -25.474 h 10.839 v 26.378 c 0,1.264 0.272,2.619 0.542,3.703 1.175,3.162 3.976,5.872 7.769,5.872 5.33,0 7.859,-4.336 7.859,-11.654 v -24.299 h 10.84 V -19.06 C 14.724,-4.968 7.317,0 0,0"
         style="fill:#ffffff;fill-opacity:1;fill-rule:nonzero;stroke:none"
         id="path142" /></g><path
       d="m -448.77084,855.24104 h 11.201 v 43.992 h -11.201 z"
       style="fill:#ffffff;fill-opacity:1;fill-rule:nonzero;stroke:none"
       id="path144" /><g
       id="g146"
       transform="translate(-405.32194,899.95594)"><path
         d="m 0,0 c -0.903,0.18 -1.536,0.271 -2.619,0.271 -4.698,0 -9.847,-3.162 -12.015,-9.395 h -0.361 l -0.362,8.401 h -9.665 c 0.271,-3.975 0.361,-8.22 0.361,-14.182 v -29.81 h 11.111 v 22.764 c 0,1.265 0.181,2.439 0.362,3.432 0.993,4.969 4.607,8.402 9.937,8.402 1.354,0 2.348,-0.181 3.251,-0.362 z"
         style="fill:#ffffff;fill-opacity:1;fill-rule:nonzero;stroke:none"
         id="path148" /></g><g
       id="g150"
       transform="translate(-379.84684,870.83904)"><path
         d="m 0,0 c 0,-0.729 -0.092,-1.642 -0.365,-2.463 -1.003,-3.192 -4.287,-6.111 -8.757,-6.111 -3.558,0 -6.385,2.007 -6.385,6.385 0,6.751 7.57,8.483 15.507,8.3 z m 10.945,-4.926 v 16.055 c 0,9.668 -4.104,18.699 -18.334,18.699 -7.024,0 -12.77,-1.915 -16.054,-3.922 l 2.189,-7.298 c 3.01,1.916 7.571,3.284 11.949,3.284 7.845,0 9.031,-4.834 9.031,-7.753 v -0.73 C -16.693,13.5 -26.636,7.845 -26.636,-3.375 c 0,-6.75 5.017,-13.227 13.956,-13.227 5.747,0 10.399,2.463 13.136,5.93 h 0.273 l 0.73,-4.926 h 10.125 c -0.456,2.737 -0.639,6.659 -0.639,10.672"
         style="fill:#ffffff;fill-opacity:1;fill-rule:nonzero;stroke:none"
         id="path152" /></g><g
       id="g154"
       transform="translate(-370.42994,906.59154)"><path
         d="m 0,0 c -49.881,36.49 -99.682,36.421 -149.678,-0.766 10.011,22.643 42.66,37.789 68.319,39.295 C -40.348,40.936 -6.054,16.001 0,0"
         style="fill:#ffffff;fill-opacity:1;fill-rule:nonzero;stroke:none"
         id="path156" /></g><path
       d="m 791.48364,-593.25031 h 358.05216 v 233.38619 H 791.48364 Z"
       transform="scale(1,-1)"
       style="fill:none;stroke-width:0.225"
       id="rect76" /></g></svg>
